<svg width="19" height="13" viewBox="0 0 19 13" fill="none" xmlns="http://www.w3.org/2000/svg">
<path fill-rule="evenodd" clip-rule="evenodd" d="M12.2666 6.17947H17.5238V5.29521L14.8952 2.64835H12.2665L12.2666 6.17947ZM12.2666 1.76568H15.3959L18.4 4.7081V9.71027C18.4 10.1978 18.0078 10.5931 17.5239 10.5931H16.2095C16.2095 11.8119 15.2289 12.8 14.019 12.8C12.8093 12.8 11.8285 11.8119 11.8285 10.5931H5.69516C5.69516 11.8119 4.71452 12.8 3.50467 12.8C2.29497 12.8 1.31418 11.8119 1.31418 10.5931H0.876118C0.392215 10.5931 0 10.1978 0 9.71027V0.88268C0 0.395153 0.392215 0 0.876118 0H11.3905C11.8744 0 12.2666 0.395153 12.2666 0.88268V1.76568ZM3.50463 11.9174C4.23058 11.9174 4.819 11.3246 4.819 10.5933C4.819 9.86195 4.23058 9.26912 3.50463 9.26912C2.77883 9.26912 2.19041 9.86195 2.19041 10.5933C2.19041 11.3246 2.77883 11.9174 3.50463 11.9174ZM14.019 11.9174C14.7449 11.9174 15.3334 11.3246 15.3334 10.5933C15.3334 9.86195 14.7449 9.26912 14.019 9.26912C13.2932 9.26912 12.7048 9.86195 12.7048 10.5933C12.7048 11.3246 13.2932 11.9174 14.019 11.9174Z" fill="#0C122A" style="fill:#0C122A;fill:color(display-p3 0.0471 0.0706 0.1647);fill-opacity:1;"/>
</svg>
