<svg width="144" height="41" viewBox="0 0 144 41" fill="none" xmlns="http://www.w3.org/2000/svg">
<rect x="0.75" y="0.75" width="142.5" height="39.5" rx="19.75" stroke="#0C122A" style="stroke:#0C122A;stroke:color(display-p3 0.0471 0.0706 0.1647);stroke-opacity:1;" stroke-width="1.5"/>
<path d="M18.66 17.142V25.5H17.05V15.7H24.302V25.5H22.692V17.142H18.66ZM35.8516 24.254C34.9369 25.2433 33.7096 25.738 32.1696 25.738C30.6296 25.738 29.3976 25.2433 28.4736 24.254C27.5589 23.2647 27.1016 22.0467 27.1016 20.6C27.1016 19.1533 27.5589 17.9353 28.4736 16.946C29.3976 15.9567 30.6296 15.462 32.1696 15.462C33.7096 15.462 34.9369 15.9567 35.8516 16.946C36.7756 17.9353 37.2376 19.1533 37.2376 20.6C37.2376 22.0467 36.7756 23.2647 35.8516 24.254ZM29.6776 23.246C30.2842 23.946 31.1149 24.296 32.1696 24.296C33.2242 24.296 34.0502 23.946 34.6476 23.246C35.2542 22.5367 35.5529 21.6547 35.5436 20.6C35.5529 19.5453 35.2542 18.668 34.6476 17.968C34.0502 17.2587 33.2242 16.904 32.1696 16.904C31.1149 16.904 30.2842 17.2587 29.6776 17.968C29.0802 18.668 28.7862 19.5453 28.7956 20.6C28.7862 21.6547 29.0802 22.5367 29.6776 23.246ZM44.6008 20.46C45.1701 20.516 45.6461 20.7493 46.0288 21.16C46.4208 21.5613 46.6168 22.098 46.6168 22.77C46.6168 23.6193 46.3368 24.2867 45.7768 24.772C45.2261 25.2573 44.4655 25.5 43.4948 25.5H40.0368V15.7H43.3128C44.2928 15.7 45.0628 15.9287 45.6228 16.386C46.1828 16.834 46.4628 17.4547 46.4628 18.248C46.4628 19.48 45.8421 20.2173 44.6008 20.46ZM43.2428 17.114H41.6468V19.802H43.2428C43.7468 19.802 44.1388 19.6853 44.4188 19.452C44.7081 19.2093 44.8528 18.878 44.8528 18.458C44.8528 18.0287 44.7128 17.6973 44.4328 17.464C44.1528 17.2307 43.7561 17.114 43.2428 17.114ZM43.4668 24.086C43.9521 24.086 44.3301 23.9553 44.6008 23.694C44.8715 23.4327 45.0068 23.0687 45.0068 22.602C45.0068 22.1913 44.8668 21.86 44.5868 21.608C44.3068 21.3467 43.9381 21.216 43.4808 21.216H41.6468V24.086H43.4668ZM49.4862 25.5V15.7H55.1422V17.142H51.0962V19.914H55.1422V21.356H51.0962V24.058H55.1422V25.5H49.4862ZM61.9735 15.7C62.9535 15.7 63.7562 16.022 64.3815 16.666C65.0162 17.31 65.3335 18.1313 65.3335 19.13C65.3335 20.1287 65.0162 20.95 64.3815 21.594C63.7562 22.238 62.9535 22.56 61.9735 22.56H59.9715V25.5H58.3615V15.7H61.9735ZM61.8755 21.118C62.4075 21.118 62.8462 20.9313 63.1915 20.558C63.5462 20.1753 63.7235 19.6993 63.7235 19.13C63.7235 18.5607 63.5462 18.0893 63.1915 17.716C62.8462 17.3333 62.4075 17.142 61.8755 17.142H59.9715V21.118H61.8755ZM67.7836 25.5V15.7H69.3936V19.914H73.4396V15.7H75.0496V25.5H73.4396V21.356H69.3936V25.5H67.7836ZM83.7288 15.7H85.4928L80.6348 25.5H78.8708L80.8168 21.566L77.1488 15.7H79.0108L81.6428 19.914L83.7288 15.7ZM89.8707 25.5V17.212H87.0287V15.7H94.3367V17.212H91.4807V25.5H89.8707ZM102.362 18.724L98.3298 24.828V25.5H96.7198V15.7H98.3298V22.476L102.362 16.372V15.7H103.972V25.5H102.362V18.724ZM111.867 25.738C110.299 25.738 109.058 25.262 108.143 24.31C107.229 23.358 106.771 22.1213 106.771 20.6C106.771 19.0787 107.229 17.842 108.143 16.89C109.058 15.938 110.299 15.462 111.867 15.462C113.183 15.462 114.266 15.798 115.115 16.47C115.965 17.1327 116.464 17.996 116.613 19.06H114.849C114.691 18.388 114.355 17.8607 113.841 17.478C113.337 17.0953 112.684 16.904 111.881 16.904C110.808 16.904 109.968 17.24 109.361 17.912C108.764 18.5747 108.465 19.4707 108.465 20.6C108.465 21.7293 108.764 22.63 109.361 23.302C109.968 23.9647 110.808 24.296 111.881 24.296C112.684 24.296 113.337 24.1047 113.841 23.722C114.355 23.3393 114.691 22.812 114.849 22.14H116.613C116.464 23.204 115.965 24.072 115.115 24.744C114.266 25.4067 113.183 25.738 111.867 25.738ZM119.351 25.5V15.7H120.961V19.816H123.061C123.911 19.816 124.601 20.0913 125.133 20.642C125.665 21.1927 125.931 21.8647 125.931 22.658C125.931 23.4513 125.665 24.1233 125.133 24.674C124.601 25.2247 123.911 25.5 123.061 25.5H119.351ZM120.961 24.072H123.061C123.435 24.072 123.738 23.9367 123.971 23.666C124.205 23.386 124.321 23.05 124.321 22.658C124.321 22.266 124.205 21.9347 123.971 21.664C123.738 21.384 123.435 21.244 123.061 21.244H120.961V24.072Z" fill="#0C122A" style="fill:#0C122A;fill:color(display-p3 0.0471 0.0706 0.1647);fill-opacity:1;"/>
</svg>
