<svg width="44" height="44" viewBox="0 0 44 44" fill="none" xmlns="http://www.w3.org/2000/svg">
<rect x="0.75" y="0.75" width="42.5" height="42.5" rx="21.25" stroke="#0C122A" style="stroke:#0C122A;stroke:color(display-p3 0.0471 0.0706 0.1647);stroke-opacity:1;" stroke-width="1.5"/>
<path fill-rule="evenodd" clip-rule="evenodd" d="M19.643 16.3097C20.2681 15.6846 21.1159 15.3334 22 15.3334C22.8841 15.3334 23.7319 15.6846 24.357 16.3097C24.9821 16.9348 25.3333 17.7827 25.3333 18.6667V19.3334H26.6667C27.0134 19.3334 27.3022 19.5991 27.331 19.9447L27.9977 27.9447C28.0132 28.1305 27.9502 28.3143 27.8239 28.4514C27.6977 28.5886 27.5198 28.6667 27.3333 28.6667H16.6667C16.4802 28.6667 16.3023 28.5886 16.1761 28.4514C16.0498 28.3143 15.9868 28.1305 16.0023 27.9447L16.669 19.9447C16.6978 19.5991 16.9866 19.3334 17.3333 19.3334H18.6667V18.6667C18.6667 17.7827 19.0179 16.9348 19.643 16.3097ZM18.6667 20.6667V21.3334C18.6667 21.7016 18.9651 22 19.3333 22C19.7015 22 20 21.7016 20 21.3334V20.6667H24V21.3334C24 21.7016 24.2985 22 24.6667 22C25.0349 22 25.3333 21.7016 25.3333 21.3334V20.6667H26.0532L26.6088 27.3334H17.3912L17.9468 20.6667H18.6667ZM24 19.3334H20V18.6667C20 18.1363 20.2107 17.6276 20.5858 17.2525C20.9609 16.8774 21.4696 16.6667 22 16.6667C22.5304 16.6667 23.0391 16.8774 23.4142 17.2525C23.7893 17.6276 24 18.1363 24 18.6667V19.3334Z" fill="#0C122A" style="fill:#0C122A;fill:color(display-p3 0.0471 0.0706 0.1647);fill-opacity:1;"/>
</svg>
