<svg width="246" height="32" viewBox="0 0 246 32" fill="none" xmlns="http://www.w3.org/2000/svg">
<path fill-rule="evenodd" clip-rule="evenodd" d="M17.8691 21.9065H14.708L12.3376 12.5972C12.2251 12.169 11.9862 11.7904 11.6348 11.612C10.7579 11.1636 9.79151 10.8068 8.7373 10.6268V10.2684H13.8295C14.5323 10.2684 15.0594 10.8068 15.1473 11.432L16.3772 18.1471L19.5367 10.2684H22.61L17.8691 21.9065ZM24.367 21.9065H21.3816L23.8399 10.2684H26.8252L24.367 21.9065ZM30.6876 13.4925C30.7754 12.8657 31.3025 12.5073 31.9175 12.5073C32.8838 12.4173 33.9365 12.5973 34.815 13.0441L35.3421 10.5384C34.4636 10.18 33.4973 10 32.6203 10C29.7228 10 27.6144 11.6121 27.6144 13.8494C27.6144 15.5514 29.1078 16.4451 30.162 16.9835C31.3025 17.5203 31.7418 17.8787 31.6539 18.4156C31.6539 19.2208 30.7754 19.5792 29.8985 19.5792C28.8443 19.5792 27.7901 19.3108 26.8253 18.8624L26.2982 21.3697C27.3524 21.8166 28.4929 21.9965 29.5471 21.9965C32.796 22.085 34.815 20.4745 34.815 18.0572C34.815 15.013 30.6876 14.8346 30.6876 13.4925ZM45.2631 21.9065L42.8926 10.2684H40.3465C39.8194 10.2684 39.2923 10.6268 39.1166 11.1636L34.7272 21.9065H37.8004L38.4138 20.206H42.1898L42.5412 21.9065H45.2631ZM40.7857 13.4026L41.6627 17.7888H39.2044L40.7857 13.4026Z" fill="#1434CB" style="fill:#1434CB;fill:color(display-p3 0.0784 0.2039 0.7961);fill-opacity:1;"/>
<path fill-rule="evenodd" clip-rule="evenodd" d="M89.6809 19.951V15.8425H91.8014C92.6703 15.8425 93.4037 15.5514 94.0016 14.9771L94.1451 14.8316C95.2372 13.6427 95.1655 11.7906 94.0016 10.6907C93.4197 10.1084 92.6225 9.79298 91.8014 9.80915H88.3975V19.951H89.6809ZM89.6811 14.5969V11.0546H91.8338C92.2962 11.0546 92.7347 11.2325 93.0616 11.556C93.7553 12.2354 93.7712 13.3676 93.1015 14.0712C92.7746 14.419 92.3122 14.6131 91.8338 14.5969H89.6811Z" fill="#3C4043" style="fill:#3C4043;fill:color(display-p3 0.2353 0.2510 0.2627);fill-opacity:1;"/>
<path fill-rule="evenodd" clip-rule="evenodd" d="M100.132 13.5537C99.5818 13.0442 98.8325 12.7854 97.8839 12.7854C96.6642 12.7854 95.7475 13.2383 95.1416 14.136L96.2736 14.8558C96.6881 14.2411 97.2541 13.9338 97.9716 13.9338C98.426 13.9338 98.8644 14.1037 99.2072 14.411C99.542 14.7021 99.7333 15.1227 99.7333 15.5675V15.8668C99.2391 15.5918 98.6173 15.4462 97.852 15.4462C96.9592 15.4462 96.2417 15.6565 95.7076 16.0851C95.1735 16.5138 94.9025 17.0799 94.9025 17.7997C94.8865 18.4548 95.1655 19.0775 95.6598 19.4981C96.162 19.951 96.7997 20.1774 97.5491 20.1774C98.4339 20.1774 99.1354 19.7812 99.6695 18.9886H99.7253V19.951H100.953V15.6726C100.953 14.7749 100.682 14.0632 100.132 13.5537ZM96.6485 18.6731C96.3854 18.479 96.2259 18.1636 96.2259 17.8239C96.2259 17.4438 96.4013 17.1284 96.7442 16.8777C97.095 16.627 97.5335 16.4976 98.0517 16.4976C98.7693 16.4895 99.3274 16.6512 99.726 16.9747C99.726 17.5247 99.5108 18.0019 99.0882 18.4062C98.7055 18.7944 98.1873 19.0128 97.6451 19.0128C97.2863 19.0209 96.9355 18.8996 96.6485 18.6731Z" fill="#3C4043" style="fill:#3C4043;fill:color(display-p3 0.2353 0.2510 0.2627);fill-opacity:1;"/>
<path d="M108 13.0118L103.711 23H102.388L103.982 19.5062L101.168 13.0118H102.563L104.596 17.9938H104.62L106.605 13.0118H108Z" fill="#3C4043" style="fill:#3C4043;fill:color(display-p3 0.2353 0.2510 0.2627);fill-opacity:1;"/>
<path d="M85.25 14.9528C85.25 14.5565 85.2182 14.1602 85.1544 13.772H79.7416V16.0123H82.8426C82.715 16.7321 82.3005 17.3791 81.6947 17.7834V19.2392H83.5441C84.6282 18.2283 85.25 16.7321 85.25 14.9528Z" fill="#4285F4" style="fill:#4285F4;fill:color(display-p3 0.2588 0.5216 0.9569);fill-opacity:1;"/>
<path d="M79.7418 20.6464C81.2883 20.6464 82.5955 20.1289 83.5441 19.2392L81.6947 17.7834C81.1765 18.1393 80.515 18.3415 79.7418 18.3415C78.2431 18.3415 76.9756 17.3143 76.5212 15.9394H74.616V17.4437C75.5885 19.409 77.5735 20.6464 79.7418 20.6464Z" fill="#34A853" style="fill:#34A853;fill:color(display-p3 0.2039 0.6588 0.3255);fill-opacity:1;"/>
<path d="M76.5212 15.9394C76.282 15.2196 76.2823 14.4353 76.5215 13.7074V12.2112H74.6159C73.7947 13.853 73.7947 15.794 74.6159 17.4358L76.5212 15.9394Z" fill="#FBBC04" style="fill:#FBBC04;fill:color(display-p3 0.9843 0.7373 0.0157);fill-opacity:1;"/>
<path d="M79.7418 11.3053C80.5629 11.2891 81.3521 11.6046 81.942 12.1788L83.5841 10.5127C82.5399 9.52605 81.1687 8.98418 79.7418 9.00035C77.5735 9.00035 75.5885 10.2459 74.6159 12.2112L76.5212 13.7154C76.9756 12.3324 78.2431 11.3053 79.7418 11.3053Z" fill="#EA4335" style="fill:#EA4335;fill:color(display-p3 0.9176 0.2627 0.2078);fill-opacity:1;"/>
<path fill-rule="evenodd" clip-rule="evenodd" d="M144.212 10.602C143.814 11.0934 143.176 11.4809 142.539 11.4256C142.459 10.7612 142.771 10.0553 143.137 9.61931C143.535 9.11411 144.232 8.75424 144.797 8.72656C144.863 9.41862 144.604 10.0968 144.212 10.602ZM150.123 9.55007V20.3392H151.73V16.6505H153.955C155.988 16.6505 157.416 15.1972 157.416 13.0934C157.416 10.9895 156.014 9.55007 154.008 9.55007H150.123ZM153.583 10.9619H151.73V15.2457H153.577C154.978 15.2457 155.775 14.4637 155.775 13.1004C155.775 11.737 154.978 10.9619 153.583 10.9619ZM160.351 20.4223C161.361 20.4223 162.297 19.8894 162.722 19.0451H162.755V20.3392H164.243V14.9689C164.243 13.4118 163.048 12.4083 161.208 12.4083C159.501 12.4083 158.239 13.4256 158.193 14.8236H159.64C159.76 14.1592 160.351 13.7232 161.161 13.7232C162.144 13.7232 162.696 14.2007 162.696 15.0796V15.6748L160.69 15.7994C158.824 15.917 157.814 16.7129 157.814 18.097C157.814 19.4949 158.857 20.4223 160.351 20.4223ZM159.381 18.0554C159.381 18.7129 159.926 19.142 160.783 19.142C161.872 19.142 162.695 18.4222 162.695 17.4118V16.8028L160.909 16.9205C159.906 16.9827 159.381 17.3772 159.381 18.0554ZM166.229 23.2736C167.796 23.2736 168.533 22.6507 169.177 20.7614L172 12.5121H170.366L168.473 18.886H168.44L166.547 12.5121H164.867L167.59 20.367L167.444 20.8445C167.198 21.6542 166.8 21.9656 166.089 21.9656C165.963 21.9656 165.717 21.9518 165.618 21.9379V23.2321C165.711 23.2597 166.109 23.2736 166.229 23.2736ZM143.302 11.9024C143.716 11.733 144.229 11.5233 144.79 11.557C145.149 11.5847 146.185 11.6954 146.849 12.7197C146.846 12.722 146.839 12.7266 146.829 12.7334C146.665 12.8447 145.621 13.552 145.634 14.9481C145.646 16.6113 146.946 17.2315 147.116 17.3127C147.128 17.318 147.135 17.3218 147.135 17.3218C147.134 17.3241 147.133 17.3285 147.131 17.3351C147.097 17.4495 146.873 18.2034 146.364 18.9758C145.893 19.6956 145.408 20.4015 144.637 20.4153C144.275 20.422 144.031 20.3121 143.776 20.1975C143.509 20.0771 143.23 19.9516 142.791 19.9516C142.336 19.9516 142.045 20.0805 141.764 20.2045C141.521 20.3122 141.285 20.4163 140.958 20.4291C140.214 20.4568 139.65 19.6679 139.178 18.9481C138.215 17.4948 137.478 14.8512 138.474 13.0657C138.959 12.1729 139.842 11.6124 140.792 11.5985C141.206 11.5907 141.602 11.7542 141.947 11.8973C142.211 12.0065 142.446 12.1037 142.638 12.1037C142.81 12.1037 143.036 12.0114 143.302 11.9024Z" fill="black" style="fill:black;fill-opacity:1;"/>
<path d="M219 7.99927C216.571 9.82368 215 12.7284 215 16C215 19.2716 216.571 22.1763 219 24.0007C217.329 25.2561 215.251 26 213 26C207.477 26 203 21.5228 203 16C203 10.4772 207.477 6 213 6C215.251 6 217.329 6.74389 219 7.99927Z" fill="#ED0006" style="fill:#ED0006;fill:color(display-p3 0.9294 0.0000 0.0235);fill-opacity:1;"/>
<path d="M219 24.0007C216.571 22.1763 215 19.2716 215 16C215 12.7284 216.571 9.82368 219 7.99927C221.429 9.82368 223 12.7284 223 16C223 19.2716 221.429 22.1763 219 24.0007Z" fill="#FF5E00" style="fill:#FF5E00;fill:color(display-p3 1.0000 0.3686 0.0000);fill-opacity:1;"/>
<path d="M219 24.0007C221.429 22.1763 223 19.2716 223 16C223 12.7284 221.429 9.82368 219 7.99927C220.671 6.74389 222.749 6 225 6C230.523 6 235 10.4772 235 16C235 21.5228 230.523 26 225 26C222.749 26 220.671 25.2561 219 24.0007Z" fill="#F9A000" style="fill:#F9A000;fill:color(display-p3 0.9765 0.6275 0.0000);fill-opacity:1;"/>
</svg>
